<?xml version="1.0" encoding="UTF-8"?>
<svg id="a" data-name="Layer 1" xmlns="http://www.w3.org/2000/svg" viewBox="0 0 960.5 1080.5">
  <path d="M930.599,.25c-16.162,15.784-32.943,32.294-50.401,49.47-154.288,151.795-233.632,162.307-208.564,201.169,37.071,57.471,284.752,22.597,276.078,55.17-8.859,33.27-276.965,148.148-357.762,255.223-74.3,98.466,115.563,81.569,110.916,192.808-2.38,56.978-56.033,153.335-242.139,326.16" style="fill: none; stroke: #000; stroke-linecap: round; stroke-linejoin: round; stroke-width: .5px;"/>
  <path d="M960.25,366.33c-87.797,51.02-201.038,117.438-249.084,181.11-75.725,100.355,117.78,83.134,113.044,196.507-2.443,58.497-57.913,157.719-250.976,336.303" style="fill: none; stroke: #000; stroke-linecap: round; stroke-linejoin: round; stroke-width: .5px;"/>
  <path d="M960.25,70.06c-126.367,113.645-189.367,127.496-166.485,162.969,19.615,30.41,97.428,34.898,166.485,36.829" style="fill: none; stroke: #000; stroke-linecap: round; stroke-linejoin: round; stroke-width: .5px;"/>
  <path d="M960.25,795.164c-29.066,62.501-99.213,152.565-243.036,285.086" style="fill: none; stroke: #000; stroke-linecap: round; stroke-linejoin: round; stroke-width: .5px;"/>
  <path d="M960.25,445.363c-40.55,28.644-76.041,58.399-98.06,87.58-61.926,82.068,52.716,87.026,98.06,145.4" style="fill: none; stroke: #000; stroke-linecap: round; stroke-linejoin: round; stroke-width: .5px;"/>
  <path d="M960.25,171.443c-18.745,16.488-24.142,27.94-14.504,42.882,3.307,5.126,8.244,9.514,14.503,13.275" style="fill: none; stroke: #000; stroke-linecap: round; stroke-linejoin: round; stroke-width: .5px;"/>
  <path d="M841.14,.25c-22.24,21.534-45.703,44.618-70.56,69.074-151.835,149.381-229.377,158.121-204.708,196.365,36.482,56.557,279.175,23.939,270.639,55.994-8.719,32.741-272.053,145.697-351.565,251.07-73.119,96.9,113.725,80.272,109.153,189.742-2.327,55.718-54.476,149.699-234.828,317.755" style="fill: none; stroke: #000; stroke-linecap: round; stroke-linejoin: round; stroke-width: .5px;"/>
  <path d="M761.608,.25c-26.078,25.046-53.886,52.404-83.723,81.759-150.248,147.82-226.623,155.412-202.213,193.256,36.1,55.966,275.567,24.807,267.12,56.527-8.627,32.399-268.874,144.111-347.555,248.383-72.354,95.887,112.536,79.433,108.012,187.759-2.293,54.901-53.469,147.344-230.104,312.316" style="fill: none; stroke: #000; stroke-linecap: round; stroke-linejoin: round; stroke-width: .5px;"/>
  <path d="M672.61,.25c-31.877,30.068-66.445,64.078-104.343,101.363-147.795,145.406-222.368,151.226-198.356,188.452,35.511,55.052,269.99,26.149,261.682,57.351-8.487,31.87-263.962,141.66-341.358,244.23-71.173,94.322,110.699,78.136,106.248,184.693-2.24,53.637-51.912,143.701-222.813,303.911" style="fill: none; stroke: #000; stroke-linecap: round; stroke-linejoin: round; stroke-width: .5px;"/>
  <path d="M573.803,.25c-36.545,33.737-76.745,73.286-121.692,117.508-145.774,143.419-218.864,147.778-195.18,184.496,35.025,54.3,265.398,27.254,257.203,58.03-8.371,31.434-259.917,139.642-336.255,240.809-70.2,93.033,109.186,77.068,104.796,182.169-2.197,52.594-50.631,140.698-216.82,296.989" style="fill: none; stroke: #000; stroke-linecap: round; stroke-linejoin: round; stroke-width: .5px;"/>
  <path d="M485.664,.25c-41.53,37.079-87.934,82.734-141.078,135.019-143.583,141.263-215.063,144.039-191.735,180.204,34.499,53.484,260.417,28.453,252.345,58.766-8.245,30.961-255.529,137.453-330.72,237.099-69.145,91.634,107.545,75.91,103.221,179.431-1.996,47.775-42.726,125.299-177.447,257.817" style="fill: none; stroke: #000; stroke-linecap: round; stroke-linejoin: round; stroke-width: .5px;"/>
  <path d="M.25,745.043c10.961,13.17,17.941,29.461,17.044,50.941-.663,15.882-5.653,35.087-17.044,58.563" style="fill: none; stroke: #000; stroke-linecap: round; stroke-miterlimit: 10; stroke-width: .5px;"/>
  <path d="M.25,332.633c50.515,42.527,249.344,22.94,241.792,51.3-6.042,22.689-141.64,86.338-241.792,157.884" style="fill: none; stroke: #000; stroke-linecap: round; stroke-miterlimit: 10; stroke-width: .5px;"/>
  <path d="M337.458,.25c-44.97,38.886-95.77,88.866-155.044,147.182C87.599,240.715,24.723,272.485,.25,293.938" style="fill: none; stroke: #000; stroke-linecap: round; stroke-linejoin: round; stroke-width: .5px;"/>
</svg>